<?xml version="1.0" standalone="no"?>
<svg xmlns:xlink="http://www.w3.org/1999/xlink" id="wave" style="transform:rotate(180deg); transition: 0.3s" viewBox="0 0 1440 170" version="1.1" xmlns="http://www.w3.org/2000/svg"><defs><linearGradient id="sw-gradient-0" x1="0" x2="0" y1="1" y2="0"><stop stop-color="rgba(213, 200, 148, 1)" offset="0%"/><stop stop-color="rgba(213, 200, 148, 1)" offset="100%"/></linearGradient></defs><path style="transform:translate(0, 0px); opacity:1" fill="url(#sw-gradient-0)" d="M0,119L48,102C96,85,192,51,288,56.7C384,62,480,108,576,127.5C672,147,768,142,864,141.7C960,142,1056,147,1152,150.2C1248,153,1344,153,1440,136C1536,119,1632,85,1728,70.8C1824,57,1920,62,2016,70.8C2112,79,2208,91,2304,90.7C2400,91,2496,79,2592,70.8C2688,62,2784,57,2880,65.2C2976,74,3072,96,3168,110.5C3264,125,3360,130,3456,119C3552,108,3648,79,3744,65.2C3840,51,3936,51,4032,56.7C4128,62,4224,74,4320,76.5C4416,79,4512,74,4608,62.3C4704,51,4800,34,4896,22.7C4992,11,5088,6,5184,19.8C5280,34,5376,68,5472,70.8C5568,74,5664,45,5760,34C5856,23,5952,28,6048,45.3C6144,62,6240,91,6336,107.7C6432,125,6528,130,6624,133.2C6720,136,6816,136,6864,136L6912,136L6912,170L6864,170C6816,170,6720,170,6624,170C6528,170,6432,170,6336,170C6240,170,6144,170,6048,170C5952,170,5856,170,5760,170C5664,170,5568,170,5472,170C5376,170,5280,170,5184,170C5088,170,4992,170,4896,170C4800,170,4704,170,4608,170C4512,170,4416,170,4320,170C4224,170,4128,170,4032,170C3936,170,3840,170,3744,170C3648,170,3552,170,3456,170C3360,170,3264,170,3168,170C3072,170,2976,170,2880,170C2784,170,2688,170,2592,170C2496,170,2400,170,2304,170C2208,170,2112,170,2016,170C1920,170,1824,170,1728,170C1632,170,1536,170,1440,170C1344,170,1248,170,1152,170C1056,170,960,170,864,170C768,170,672,170,576,170C480,170,384,170,288,170C192,170,96,170,48,170L0,170Z"/></svg>