<?xml version="1.0" standalone="no"?>
<svg xmlns:xlink="http://www.w3.org/1999/xlink" id="wave" style="transform:rotate(0deg); transition: 0.3s" viewBox="0 0 1440 220" version="1.1" xmlns="http://www.w3.org/2000/svg"><defs><linearGradient id="sw-gradient-0" x1="0" x2="0" y1="1" y2="0"><stop stop-color="rgba(213, 200, 148, 1)" offset="0%"/><stop stop-color="rgba(213, 200, 148, 1)" offset="100%"/></linearGradient></defs><path style="transform:translate(0, 0px); opacity:1" fill="url(#sw-gradient-0)" d="M0,154L26.7,132C53.3,110,107,66,160,73.3C213.3,81,267,139,320,165C373.3,191,427,183,480,183.3C533.3,183,587,191,640,194.3C693.3,198,747,198,800,176C853.3,154,907,110,960,91.7C1013.3,73,1067,81,1120,91.7C1173.3,103,1227,117,1280,117.3C1333.3,117,1387,103,1440,91.7C1493.3,81,1547,73,1600,84.3C1653.3,95,1707,125,1760,143C1813.3,161,1867,169,1920,154C1973.3,139,2027,103,2080,84.3C2133.3,66,2187,66,2240,73.3C2293.3,81,2347,95,2400,99C2453.3,103,2507,95,2560,80.7C2613.3,66,2667,44,2720,29.3C2773.3,15,2827,7,2880,25.7C2933.3,44,2987,88,3040,91.7C3093.3,95,3147,59,3200,44C3253.3,29,3307,37,3360,58.7C3413.3,81,3467,117,3520,139.3C3573.3,161,3627,169,3680,172.3C3733.3,176,3787,176,3813,176L3840,176L3840,220L3813.3,220C3786.7,220,3733,220,3680,220C3626.7,220,3573,220,3520,220C3466.7,220,3413,220,3360,220C3306.7,220,3253,220,3200,220C3146.7,220,3093,220,3040,220C2986.7,220,2933,220,2880,220C2826.7,220,2773,220,2720,220C2666.7,220,2613,220,2560,220C2506.7,220,2453,220,2400,220C2346.7,220,2293,220,2240,220C2186.7,220,2133,220,2080,220C2026.7,220,1973,220,1920,220C1866.7,220,1813,220,1760,220C1706.7,220,1653,220,1600,220C1546.7,220,1493,220,1440,220C1386.7,220,1333,220,1280,220C1226.7,220,1173,220,1120,220C1066.7,220,1013,220,960,220C906.7,220,853,220,800,220C746.7,220,693,220,640,220C586.7,220,533,220,480,220C426.7,220,373,220,320,220C266.7,220,213,220,160,220C106.7,220,53,220,27,220L0,220Z"/></svg>