<?xml version="1.0" standalone="no"?>
<svg xmlns:xlink="http://www.w3.org/1999/xlink" id="wave" style="transform:rotate(180deg); transition: 0.3s" viewBox="0 0 1440 100" version="1.1" xmlns="http://www.w3.org/2000/svg"><defs><linearGradient id="sw-gradient-0" x1="0" x2="0" y1="1" y2="0"><stop stop-color="rgba(213, 200, 148, 1)" offset="0%"/><stop stop-color="rgba(213, 200, 148, 1)" offset="100%"/></linearGradient></defs><path style="transform:translate(0, 0px); opacity:1" fill="url(#sw-gradient-0)" d="M0,70L26.7,60C53.3,50,107,30,160,33.3C213.3,37,267,63,320,75C373.3,87,427,83,480,83.3C533.3,83,587,87,640,88.3C693.3,90,747,90,800,80C853.3,70,907,50,960,41.7C1013.3,33,1067,37,1120,41.7C1173.3,47,1227,53,1280,53.3C1333.3,53,1387,47,1440,41.7C1493.3,37,1547,33,1600,38.3C1653.3,43,1707,57,1760,65C1813.3,73,1867,77,1920,70C1973.3,63,2027,47,2080,38.3C2133.3,30,2187,30,2240,33.3C2293.3,37,2347,43,2400,45C2453.3,47,2507,43,2560,36.7C2613.3,30,2667,20,2720,13.3C2773.3,7,2827,3,2880,11.7C2933.3,20,2987,40,3040,41.7C3093.3,43,3147,27,3200,20C3253.3,13,3307,17,3360,26.7C3413.3,37,3467,53,3520,63.3C3573.3,73,3627,77,3680,78.3C3733.3,80,3787,80,3813,80L3840,80L3840,100L3813.3,100C3786.7,100,3733,100,3680,100C3626.7,100,3573,100,3520,100C3466.7,100,3413,100,3360,100C3306.7,100,3253,100,3200,100C3146.7,100,3093,100,3040,100C2986.7,100,2933,100,2880,100C2826.7,100,2773,100,2720,100C2666.7,100,2613,100,2560,100C2506.7,100,2453,100,2400,100C2346.7,100,2293,100,2240,100C2186.7,100,2133,100,2080,100C2026.7,100,1973,100,1920,100C1866.7,100,1813,100,1760,100C1706.7,100,1653,100,1600,100C1546.7,100,1493,100,1440,100C1386.7,100,1333,100,1280,100C1226.7,100,1173,100,1120,100C1066.7,100,1013,100,960,100C906.7,100,853,100,800,100C746.7,100,693,100,640,100C586.7,100,533,100,480,100C426.7,100,373,100,320,100C266.7,100,213,100,160,100C106.7,100,53,100,27,100L0,100Z"/></svg>