<?xml version="1.0" standalone="no"?>
<svg xmlns:xlink="http://www.w3.org/1999/xlink" id="wave" style="transform:rotate(0deg); transition: 0.3s" viewBox="0 0 1440 170" version="1.1" xmlns="http://www.w3.org/2000/svg"><defs><linearGradient id="sw-gradient-0" x1="0" x2="0" y1="1" y2="0"><stop stop-color="rgba(184, 189, 123, 1)" offset="0%"/><stop stop-color="rgba(184, 189, 123, 1)" offset="100%"/></linearGradient></defs><path style="transform:translate(0, 0px); opacity:1" fill="url(#sw-gradient-0)" d="M0,119L20,102C40,85,80,51,120,56.7C160,62,200,108,240,127.5C280,147,320,142,360,141.7C400,142,440,147,480,150.2C520,153,560,153,600,136C640,119,680,85,720,70.8C760,57,800,62,840,70.8C880,79,920,91,960,90.7C1000,91,1040,79,1080,70.8C1120,62,1160,57,1200,65.2C1240,74,1280,96,1320,110.5C1360,125,1400,130,1440,119C1480,108,1520,79,1560,65.2C1600,51,1640,51,1680,56.7C1720,62,1760,74,1800,76.5C1840,79,1880,74,1920,62.3C1960,51,2000,34,2040,22.7C2080,11,2120,6,2160,19.8C2200,34,2240,68,2280,70.8C2320,74,2360,45,2400,34C2440,23,2480,28,2520,45.3C2560,62,2600,91,2640,107.7C2680,125,2720,130,2760,133.2C2800,136,2840,136,2860,136L2880,136L2880,170L2860,170C2840,170,2800,170,2760,170C2720,170,2680,170,2640,170C2600,170,2560,170,2520,170C2480,170,2440,170,2400,170C2360,170,2320,170,2280,170C2240,170,2200,170,2160,170C2120,170,2080,170,2040,170C2000,170,1960,170,1920,170C1880,170,1840,170,1800,170C1760,170,1720,170,1680,170C1640,170,1600,170,1560,170C1520,170,1480,170,1440,170C1400,170,1360,170,1320,170C1280,170,1240,170,1200,170C1160,170,1120,170,1080,170C1040,170,1000,170,960,170C920,170,880,170,840,170C800,170,760,170,720,170C680,170,640,170,600,170C560,170,520,170,480,170C440,170,400,170,360,170C320,170,280,170,240,170C200,170,160,170,120,170C80,170,40,170,20,170L0,170Z"/></svg>