<svg width="67" height="45" viewBox="0 0 67 45" fill="none" xmlns="http://www.w3.org/2000/svg">
<path d="M28.32 31.344C28.32 35.2267 26.8053 38.32 23.776 40.624C20.7893 42.8853 17.2267 44.016 13.088 44.016C10.1867 44.016 5.89867 43.3547 0.224 42.032C0.181334 41.0933 0.16 39.6 0.16 37.552C0.16 35.504 0.352 32.6453 0.736 28.976C1.97333 28.976 3.40267 29.104 5.024 29.36C5.024 29.5307 5.024 29.7227 5.024 29.936C5.024 36.1653 7.81867 39.28 13.408 39.28C15.2427 39.28 16.672 38.896 17.696 38.128C18.7627 37.3173 19.296 36.1867 19.296 34.736C19.296 33.2427 18.8267 31.92 17.888 30.768C16.9493 29.616 15.7547 28.6773 14.304 27.952C12.896 27.2267 11.36 26.3947 9.696 25.456C8.032 24.5173 6.47467 23.5573 5.024 22.576C3.616 21.552 2.44267 20.1653 1.504 18.416C0.565334 16.6667 0.0960002 14.64 0.0960002 12.336C0.0960002 8.624 1.44 5.744 4.128 3.696C6.85867 1.648 10.144 0.623997 13.984 0.623997C17.824 0.623997 21.8773 1.24266 26.144 2.48C26.144 5.68 25.8453 9.41333 25.248 13.68C24.096 13.68 22.9867 13.616 21.92 13.488C21.152 7.89866 18.72 5.104 14.624 5.104C12.9173 5.104 11.488 5.50933 10.336 6.32C9.184 7.13067 8.608 8.24 8.608 9.648C8.608 11.056 9.09867 12.336 10.08 13.488C11.0613 14.5973 12.2773 15.5147 13.728 16.24C15.1787 16.9227 16.7573 17.7333 18.464 18.672C20.1707 19.568 21.7493 20.5067 23.2 21.488C24.6507 22.4267 25.8667 23.7493 26.848 25.456C27.8293 27.1627 28.32 29.1253 28.32 31.344ZM66.5825 1.52C66.5825 2.416 66.5825 3.952 66.5825 6.128C66.5825 8.26133 66.4545 10.6933 66.1985 13.424C65.1745 13.5093 63.7452 13.552 61.9105 13.552C61.6118 10.3947 61.2705 8.432 60.8865 7.664C60.2465 6.21333 58.9238 5.488 56.9185 5.488H48.3425V21.552L56.7905 20.656H59.6065V26.288H56.7905L48.3425 25.712V38.256C50.5185 38.896 52.8012 39.3013 55.1905 39.472C55.1905 39.728 55.1905 40.1547 55.1905 40.752C55.1905 41.3493 55.1052 42.1387 54.9345 43.12H33.7505C33.7505 42.7787 33.7505 42.288 33.7505 41.648C33.7505 40.9653 33.8572 40.24 34.0705 39.472C35.3932 39.2587 36.3958 38.896 37.0785 38.384C37.7612 37.8293 38.1025 36.9333 38.1025 35.696V5.808C37.0358 5.33866 35.5212 5.104 33.5585 5.104C33.5585 4.848 33.5585 4.42133 33.5585 3.824C33.5585 3.184 33.6652 2.416 33.8785 1.52H66.5825Z" fill="#686852"/>
</svg>
